<svg xmlns="http://www.w3.org/2000/svg" xmlns:xlink="http://www.w3.org/1999/xlink" width="1920" height="700" viewBox="0 0 1920 700"><defs><style>.a{clip-path:url(#z);}.b{fill:rgba(220,220,220,0.45);stroke:#707070;}.c,.d,.f,.l{fill:#fff;}.c,.d,.h{stroke:#2e3192;}.c{stroke-width:5px;mix-blend-mode:darken;isolation:isolate;}.d{stroke-width:15px;}.e,.g,.h,.j{fill:none;}.e,.g{stroke:#ed1c24;}.e{stroke-width:12px;}.i,.k{stroke:none;}.k{fill:#2e3192;}.m{filter:url(#w);}.n{filter:url(#u);}.o{filter:url(#s);}.p{filter:url(#q);}.q{filter:url(#o);}.r{filter:url(#m);}.s{filter:url(#k);}.t{filter:url(#i);}.u{filter:url(#g);}.v{filter:url(#e);}.w{filter:url(#c);}.x{filter:url(#a);}</style><filter id="a" x="1687" y="50" width="168" height="168" filterUnits="userSpaceOnUse"><feOffset dy="3" input="SourceAlpha"/><feGaussianBlur stdDeviation="3" result="b"/><feFlood flood-opacity="0.161"/><feComposite operator="in" in2="b"/><feComposite in="SourceGraphic"/></filter><filter id="c" x="1735.5" y="92.5" width="75" height="75" filterUnits="userSpaceOnUse"><feOffset dx="2" input="SourceAlpha"/><feGaussianBlur stdDeviation="2.5" result="d"/><feFlood flood-opacity="0.161"/><feComposite operator="in" in2="d"/><feComposite in="SourceGraphic"/></filter><filter id="e" x="1687" y="271" width="168" height="168" filterUnits="userSpaceOnUse"><feOffset dy="3" input="SourceAlpha"/><feGaussianBlur stdDeviation="3" result="f"/><feFlood flood-opacity="0.161"/><feComposite operator="in" in2="f"/><feComposite in="SourceGraphic"/></filter><filter id="g" x="1735.5" y="312.5" width="75" height="75" filterUnits="userSpaceOnUse"><feOffset dx="2" input="SourceAlpha"/><feGaussianBlur stdDeviation="2.5" result="h"/><feFlood flood-opacity="0.161"/><feComposite operator="in" in2="h"/><feComposite in="SourceGraphic"/></filter><filter id="i" x="1687" y="491" width="168" height="169" filterUnits="userSpaceOnUse"><feOffset dy="3" input="SourceAlpha"/><feGaussianBlur stdDeviation="3" result="j"/><feFlood flood-opacity="0.161"/><feComposite operator="in" in2="j"/><feComposite in="SourceGraphic"/></filter><filter id="k" x="1735.5" y="532.5" width="75" height="75" filterUnits="userSpaceOnUse"><feOffset dx="2" input="SourceAlpha"/><feGaussianBlur stdDeviation="2.5" result="l"/><feFlood flood-opacity="0.161"/><feComposite operator="in" in2="l"/><feComposite in="SourceGraphic"/></filter><filter id="m" x="73" y="49" width="168" height="168" filterUnits="userSpaceOnUse"><feOffset dy="3" input="SourceAlpha"/><feGaussianBlur stdDeviation="3" result="n"/><feFlood flood-opacity="0.161"/><feComposite operator="in" in2="n"/><feComposite in="SourceGraphic"/></filter><filter id="o" x="121.5" y="92.5" width="75" height="75" filterUnits="userSpaceOnUse"><feOffset dx="2" input="SourceAlpha"/><feGaussianBlur stdDeviation="2.5" result="p"/><feFlood flood-opacity="0.161"/><feComposite operator="in" in2="p"/><feComposite in="SourceGraphic"/></filter><filter id="q" x="73" y="269" width="168" height="168" filterUnits="userSpaceOnUse"><feOffset dy="3" input="SourceAlpha"/><feGaussianBlur stdDeviation="3" result="r"/><feFlood flood-opacity="0.161"/><feComposite operator="in" in2="r"/><feComposite in="SourceGraphic"/></filter><filter id="s" x="121.5" y="312.5" width="75" height="75" filterUnits="userSpaceOnUse"><feOffset dx="2" input="SourceAlpha"/><feGaussianBlur stdDeviation="2.5" result="t"/><feFlood flood-opacity="0.161"/><feComposite operator="in" in2="t"/><feComposite in="SourceGraphic"/></filter><filter id="u" x="73" y="489" width="168" height="168" filterUnits="userSpaceOnUse"><feOffset dy="3" input="SourceAlpha"/><feGaussianBlur stdDeviation="3" result="v"/><feFlood flood-opacity="0.161"/><feComposite operator="in" in2="v"/><feComposite in="SourceGraphic"/></filter><filter id="w" x="121.5" y="532.5" width="75" height="75" filterUnits="userSpaceOnUse"><feOffset dx="2" input="SourceAlpha"/><feGaussianBlur stdDeviation="2.5" result="x"/><feFlood flood-opacity="0.161"/><feComposite operator="in" in2="x"/><feComposite in="SourceGraphic"/></filter><clipPath id="z"><rect width="1920" height="700"/></clipPath></defs><g id="y" class="a"><rect class="l" width="1920" height="700"/><g class="b"><rect class="i" width="1922" height="700"/><rect class="j" x="0.5" y="0.5" width="1921" height="699"/></g><g class="c" transform="translate(46 33)"><rect class="i" width="1840" height="200" rx="8"/><rect class="j" x="2.5" y="2.5" width="1835" height="195" rx="5.5"/></g><g class="c" transform="translate(46 250)"><rect class="i" width="1840" height="200" rx="8"/><rect class="j" x="2.5" y="2.5" width="1835" height="195" rx="5.5"/></g><g class="c" transform="translate(46 473)"><rect class="i" width="1840" height="200" rx="8"/><rect class="j" x="2.5" y="2.5" width="1835" height="195" rx="5.5"/></g><g transform="translate(106 -161)"><g class="x" transform="matrix(1, 0, 0, 1, -106, 161)"><g class="d" transform="translate(1696 56)"><circle class="i" cx="75" cy="75" r="75"/><circle class="j" cx="75" cy="75" r="67.5"/></g></g><g class="w" transform="matrix(1, 0, 0, 1, -106, 161)"><g class="e" transform="translate(1741 100)"><circle class="i" cx="30" cy="30" r="30"/><circle class="j" cx="30" cy="30" r="24"/></g></g></g><g transform="translate(106 59)"><g class="v" transform="matrix(1, 0, 0, 1, -106, -59)"><g class="d" transform="translate(1696 277)"><circle class="i" cx="75" cy="75" r="75"/><circle class="j" cx="75" cy="75" r="67.5"/></g></g><g class="u" transform="matrix(1, 0, 0, 1, -106, -59)"><g class="e" transform="translate(1741 320)"><circle class="i" cx="30" cy="30" r="30"/><circle class="j" cx="30" cy="30" r="24"/></g></g></g><g transform="translate(106 279)"><g class="t" transform="matrix(1, 0, 0, 1, -106, -279)"><g class="f" transform="translate(1696 498)"><path class="i" d="M 75 142.5 C 37.78036880493164 142.5 7.5 112.2196350097656 7.5 75 C 7.5 37.22897338867188 37.78036880493164 6.5 75 6.5 C 112.2196350097656 6.5 142.5 37.22897338867188 142.5 75 C 142.5 112.2196350097656 112.2196350097656 142.5 75 142.5 Z"/><path class="k" d="M 75 14 C 41.91590118408203 14 15 41.364501953125 15 75 C 15 108.084098815918 41.91590118408203 135 75 135 C 108.084098815918 135 135 108.084098815918 135 75 C 135 41.364501953125 108.084098815918 14 75 14 M 75 -1 C 116.4213714599609 -1 150 33.57863616943359 150 75 C 150 116.4213714599609 116.4213714599609 150 75 150 C 33.57863616943359 150 0 116.4213714599609 0 75 C 0 33.57863616943359 33.57863616943359 -1 75 -1 Z"/></g></g><g class="s" transform="matrix(1, 0, 0, 1, -106, -279)"><g class="e" transform="translate(1741 540)"><circle class="i" cx="30" cy="30" r="30"/><circle class="j" cx="30" cy="30" r="24"/></g></g></g><g transform="translate(-1508 -164)"><g class="r" transform="matrix(1, 0, 0, 1, 1508, 164)"><g class="d" transform="translate(82 55)"><circle class="i" cx="75" cy="75" r="75"/><circle class="j" cx="75" cy="75" r="67.5"/></g></g><g class="q" transform="matrix(1, 0, 0, 1, 1508, 164)"><g class="e" transform="translate(127 100)"><circle class="i" cx="30" cy="30" r="30"/><circle class="j" cx="30" cy="30" r="24"/></g></g></g><g transform="translate(-1508 56)"><g class="p" transform="matrix(1, 0, 0, 1, 1508, -56)"><g class="d" transform="translate(82 275)"><circle class="i" cx="75" cy="75" r="75"/><circle class="j" cx="75" cy="75" r="67.5"/></g></g><g class="o" transform="matrix(1, 0, 0, 1, 1508, -56)"><g class="e" transform="translate(127 320)"><circle class="i" cx="30" cy="30" r="30"/><circle class="j" cx="30" cy="30" r="24"/></g></g></g><g transform="translate(-1508 276)"><g class="n" transform="matrix(1, 0, 0, 1, 1508, -276)"><g class="d" transform="translate(82 495)"><circle class="i" cx="75" cy="75" r="75"/><circle class="j" cx="75" cy="75" r="67.5"/></g></g><g class="m" transform="matrix(1, 0, 0, 1, 1508, -276)"><g class="e" transform="translate(127 540)"><circle class="i" cx="30" cy="30" r="30"/><circle class="j" cx="30" cy="30" r="24"/></g></g></g><g transform="translate(2 -100)"><line class="g" x2="1614" transform="translate(155.5 201.5)"/><line class="g" x2="1614" transform="translate(155.5 259.5)"/></g><g transform="translate(-1 120)"><path class="g" d="M0-1,1614,0" transform="translate(155.5 201.5)"/><line class="g" x2="1614" transform="translate(155.5 259.5)"/></g><g transform="translate(0 340)"><line class="g" x2="1614" transform="translate(155.5 200.5)"/><line class="g" x2="1614" transform="translate(155.5 259.5)"/></g><line class="h" y2="149" transform="translate(157.5 495.5)"/><line class="h" x2="1613" transform="translate(155.5 570.5)"/><line class="h" y2="149" transform="translate(1769.5 498.5)"/><line class="h" x2="1611" transform="translate(157.5 350.5)"/><path class="h" d="M0,0,1614,3" transform="translate(157.5 128.5)"/><line class="h" y2="148" transform="translate(157.5 275.5)"/><line class="h" y2="149" transform="translate(157.5 55.5)"/><line class="h" y2="148" transform="translate(1771.5 56.5)"/><line class="h" y2="149" transform="translate(1769.5 277.5)"/></g></svg>